<svg width="40" height="2063" viewBox="0 0 40 2063" fill="none" xmlns="http://www.w3.org/2000/svg">
<path d="M19.2357 300.245C21.7504 299.208 26.277 301.8 26.277 301.8C26.277 301.8 31.886 305.1 32.8154 305.946C33.7447 306.792 37.2196 309.978 36.839 310.61L38.3478 313.72V316.312C38.6331 318.047 39.1019 319.078 38.8508 320.976C39.7844 325.438 36.1022 325.862 34.3242 330.305C33.0034 332.714 31.5009 333.613 29.2947 334.451L26.78 336.525L25.7741 340.153L25.2711 344.817L22.7563 347.409L19.2357 350M19.2357 350L15.2121 346.372C14.8407 343.952 15.089 342.594 13.7032 340.153C14.066 338.611 13.5993 337.805 13.2003 336.525L10.1826 334.451C5.60632 332.559 3.5068 330.895 1.12944 326.159C0.838195 324.255 1.12944 320.976 1.12944 320.976C1.12944 320.976 1.81163 314.817 3.6442 311.129L6.15896 306.982C10.0159 303.815 10.688 305.808 11.1885 311.129C10.7609 313.153 10.643 314.288 11.1885 316.312C11.5023 318.277 11.4525 319.275 11.1885 320.976C13.2519 319.609 13.9017 318.508 14.7091 316.312C14.0783 318.462 13.6398 319.712 14.7091 320.976M19.2357 350V342.226V336.525L22.7563 332.378L25.7741 329.269C30.1823 325.346 33.8213 319.421 34.3242 317.866C34.8271 316.312 34.8272 320.976 34.8272 320.976C32.6667 322.301 31.4553 321.79 29.2947 320.976M14.7091 320.976C15.5513 317.919 16.6644 317.061 19.2357 316.312M14.7091 320.976C16.4771 323.067 17.4677 322.898 19.2357 320.976M19.2357 320.976C19.2261 316.976 19.4302 314.708 20.2416 310.61M19.2357 320.976H22.7563C24.9129 319.135 25.9343 318.107 25.7741 316.312C25.0811 313.922 26.0981 313.701 23.2593 316.312C23.9695 319.222 24.4045 319.598 25.7741 320.976M25.7741 320.976C26.6759 317.628 27.9936 315.283 30.3006 315.793C30.4681 318.903 30.4572 319.419 29.2947 320.976M25.7741 320.976C27.7859 320.976 28.1948 322.304 29.2947 320.976M15.2121 313.202L14.7091 313.72" stroke="black" stroke-width="2"/>
<path d="M20 298V-3" stroke="black" stroke-width="2"/>
<path d="M19.2357 653.245C21.7504 652.208 26.277 654.8 26.277 654.8C26.277 654.8 31.886 658.1 32.8154 658.946C33.7447 659.792 37.2196 662.978 36.839 663.61L38.3478 666.72V669.312C38.6331 671.047 39.1019 672.078 38.8508 673.976C39.7844 678.438 36.1022 678.862 34.3242 683.305C33.0034 685.714 31.5009 686.613 29.2947 687.451L26.78 689.525L25.7741 693.153L25.2711 697.817L22.7563 700.409L19.2357 703M19.2357 703L15.2121 699.372C14.8407 696.952 15.089 695.594 13.7032 693.153C14.066 691.611 13.5993 690.805 13.2003 689.525L10.1826 687.451C5.60632 685.559 3.5068 683.895 1.12944 679.159C0.838195 677.255 1.12944 673.976 1.12944 673.976C1.12944 673.976 1.81163 667.817 3.6442 664.129L6.15896 659.982C10.0159 656.815 10.688 658.808 11.1885 664.129C10.7609 666.153 10.643 667.288 11.1885 669.312C11.5023 671.277 11.4525 672.275 11.1885 673.976C13.2519 672.609 13.9017 671.508 14.7091 669.312C14.0783 671.462 13.6398 672.712 14.7091 673.976M19.2357 703V695.226V689.525L22.7563 685.378L25.7741 682.269C30.1823 678.346 33.8213 672.421 34.3242 670.866C34.8271 669.312 34.8272 673.976 34.8272 673.976C32.6667 675.301 31.4553 674.79 29.2947 673.976M14.7091 673.976C15.5513 670.919 16.6644 670.061 19.2357 669.312M14.7091 673.976C16.4771 676.067 17.4677 675.898 19.2357 673.976M19.2357 673.976C19.2261 669.976 19.4302 667.708 20.2416 663.61M19.2357 673.976H22.7563C24.9129 672.135 25.9343 671.107 25.7741 669.312C25.0811 666.922 26.0981 666.701 23.2593 669.312C23.9695 672.222 24.4045 672.598 25.7741 673.976M25.7741 673.976C26.6759 670.628 27.9936 668.283 30.3006 668.793C30.4681 671.903 30.4572 672.419 29.2947 673.976M25.7741 673.976C27.7859 673.976 28.1948 675.304 29.2947 673.976M15.2121 666.202L14.7091 666.72" stroke="black" stroke-width="2"/>
<path d="M20 651V350" stroke="black" stroke-width="2"/>
<path d="M19.2357 1006.24C21.7504 1005.21 26.277 1007.8 26.277 1007.8C26.277 1007.8 31.886 1011.1 32.8154 1011.95C33.7447 1012.79 37.2196 1015.98 36.839 1016.61L38.3478 1019.72V1022.31C38.6331 1024.05 39.1019 1025.08 38.8508 1026.98C39.7844 1031.44 36.1022 1031.86 34.3242 1036.31C33.0034 1038.71 31.5009 1039.61 29.2947 1040.45L26.78 1042.52L25.7741 1046.15L25.2711 1050.82L22.7563 1053.41L19.2357 1056M19.2357 1056L15.2121 1052.37C14.8407 1049.95 15.089 1048.59 13.7032 1046.15C14.066 1044.61 13.5993 1043.8 13.2003 1042.52L10.1826 1040.45C5.60632 1038.56 3.5068 1036.89 1.12944 1032.16C0.838195 1030.26 1.12944 1026.98 1.12944 1026.98C1.12944 1026.98 1.81163 1020.82 3.6442 1017.13L6.15896 1012.98C10.0159 1009.82 10.688 1011.81 11.1885 1017.13C10.7609 1019.15 10.643 1020.29 11.1885 1022.31C11.5023 1024.28 11.4525 1025.28 11.1885 1026.98C13.2519 1025.61 13.9017 1024.51 14.7091 1022.31C14.0783 1024.46 13.6398 1025.71 14.7091 1026.98M19.2357 1056V1048.23V1042.52L22.7563 1038.38L25.7741 1035.27C30.1823 1031.35 33.8213 1025.42 34.3242 1023.87C34.8271 1022.31 34.8272 1026.98 34.8272 1026.98C32.6667 1028.3 31.4553 1027.79 29.2947 1026.98M14.7091 1026.98C15.5513 1023.92 16.6644 1023.06 19.2357 1022.31M14.7091 1026.98C16.4771 1029.07 17.4677 1028.9 19.2357 1026.98M19.2357 1026.98C19.2261 1022.98 19.4302 1020.71 20.2416 1016.61M19.2357 1026.98H22.7563C24.9129 1025.14 25.9343 1024.11 25.7741 1022.31C25.0811 1019.92 26.0981 1019.7 23.2593 1022.31C23.9695 1025.22 24.4045 1025.6 25.7741 1026.98M25.7741 1026.98C26.6759 1023.63 27.9936 1021.28 30.3006 1021.79C30.4681 1024.9 30.4572 1025.42 29.2947 1026.98M25.7741 1026.98C27.7859 1026.98 28.1948 1028.3 29.2947 1026.98M15.2121 1019.2L14.7091 1019.72" stroke="black" stroke-width="2"/>
<path d="M20 1004V703" stroke="black" stroke-width="2"/>
<path d="M19.2357 1359.24C21.7504 1358.21 26.277 1360.8 26.277 1360.8C26.277 1360.8 31.886 1364.1 32.8154 1364.95C33.7447 1365.79 37.2196 1368.98 36.839 1369.61L38.3478 1372.72V1375.31C38.6331 1377.05 39.1019 1378.08 38.8508 1379.98C39.7844 1384.44 36.1022 1384.86 34.3242 1389.31C33.0034 1391.71 31.5009 1392.61 29.2947 1393.45L26.78 1395.52L25.7741 1399.15L25.2711 1403.82L22.7563 1406.41L19.2357 1409M19.2357 1409L15.2121 1405.37C14.8407 1402.95 15.089 1401.59 13.7032 1399.15C14.066 1397.61 13.5993 1396.8 13.2003 1395.52L10.1826 1393.45C5.60632 1391.56 3.5068 1389.89 1.12944 1385.16C0.838195 1383.26 1.12944 1379.98 1.12944 1379.98C1.12944 1379.98 1.81163 1373.82 3.6442 1370.13L6.15896 1365.98C10.0159 1362.82 10.688 1364.81 11.1885 1370.13C10.7609 1372.15 10.643 1373.29 11.1885 1375.31C11.5023 1377.28 11.4525 1378.28 11.1885 1379.98C13.2519 1378.61 13.9017 1377.51 14.7091 1375.31C14.0783 1377.46 13.6398 1378.71 14.7091 1379.98M19.2357 1409V1401.23V1395.52L22.7563 1391.38L25.7741 1388.27C30.1823 1384.35 33.8213 1378.42 34.3242 1376.87C34.8271 1375.31 34.8272 1379.98 34.8272 1379.98C32.6667 1381.3 31.4553 1380.79 29.2947 1379.98M14.7091 1379.98C15.5513 1376.92 16.6644 1376.06 19.2357 1375.31M14.7091 1379.98C16.4771 1382.07 17.4677 1381.9 19.2357 1379.98M19.2357 1379.98C19.2261 1375.98 19.4302 1373.71 20.2416 1369.61M19.2357 1379.98H22.7563C24.9129 1378.14 25.9343 1377.11 25.7741 1375.31C25.0811 1372.92 26.0981 1372.7 23.2593 1375.31C23.9695 1378.22 24.4045 1378.6 25.7741 1379.98M25.7741 1379.98C26.6759 1376.63 27.9936 1374.28 30.3006 1374.79C30.4681 1377.9 30.4572 1378.42 29.2947 1379.98M25.7741 1379.98C27.7859 1379.98 28.1948 1381.3 29.2947 1379.98M15.2121 1372.2L14.7091 1372.72" stroke="black" stroke-width="2"/>
<path d="M20 1357V1056" stroke="black" stroke-width="2"/>
<path d="M20 2063V1762" stroke="black" stroke-width="2"/>
<path d="M19.2357 1712.24C21.7504 1711.21 26.277 1713.8 26.277 1713.8C26.277 1713.8 31.886 1717.1 32.8154 1717.95C33.7447 1718.79 37.2196 1721.98 36.839 1722.61L38.3478 1725.72V1728.31C38.6331 1730.05 39.1019 1731.08 38.8508 1732.98C39.7844 1737.44 36.1022 1737.86 34.3242 1742.31C33.0034 1744.71 31.5009 1745.61 29.2947 1746.45L26.78 1748.52L25.7741 1752.15L25.2711 1756.82L22.7563 1759.41L19.2357 1762M19.2357 1762L15.2121 1758.37C14.8407 1755.95 15.089 1754.59 13.7032 1752.15C14.066 1750.61 13.5993 1749.8 13.2003 1748.52L10.1826 1746.45C5.60632 1744.56 3.5068 1742.89 1.12944 1738.16C0.838195 1736.26 1.12944 1732.98 1.12944 1732.98C1.12944 1732.98 1.81163 1726.82 3.6442 1723.13L6.15896 1718.98C10.0159 1715.82 10.688 1717.81 11.1885 1723.13C10.7609 1725.15 10.643 1726.29 11.1885 1728.31C11.5023 1730.28 11.4525 1731.28 11.1885 1732.98C13.2519 1731.61 13.9017 1730.51 14.7091 1728.31C14.0783 1730.46 13.6398 1731.71 14.7091 1732.98M19.2357 1762V1754.23V1748.52L22.7563 1744.38L25.7741 1741.27C30.1823 1737.35 33.8213 1731.42 34.3242 1729.87C34.8271 1728.31 34.8272 1732.98 34.8272 1732.98C32.6667 1734.3 31.4553 1733.79 29.2947 1732.98M14.7091 1732.98C15.5513 1729.92 16.6644 1729.06 19.2357 1728.31M14.7091 1732.98C16.4771 1735.07 17.4677 1734.9 19.2357 1732.98M19.2357 1732.98C19.2261 1728.98 19.4302 1726.71 20.2416 1722.61M19.2357 1732.98H22.7563C24.9129 1731.14 25.9343 1730.11 25.7741 1728.31C25.0811 1725.92 26.0981 1725.7 23.2593 1728.31C23.9695 1731.22 24.4045 1731.6 25.7741 1732.98M25.7741 1732.98C26.6759 1729.63 27.9936 1727.28 30.3006 1727.79C30.4681 1730.9 30.4572 1731.42 29.2947 1732.98M25.7741 1732.98C27.7859 1732.98 28.1948 1734.3 29.2947 1732.98M15.2121 1725.2L14.7091 1725.72" stroke="black" stroke-width="2"/>
<path d="M20 1710V1409" stroke="black" stroke-width="2"/>
</svg>
