<?xml version="1.0" standalone="no"?>
<!DOCTYPE svg PUBLIC "-//W3C//DTD SVG 20010904//EN"
 "http://www.w3.org/TR/2001/REC-SVG-20010904/DTD/svg10.dtd">
<svg version="1.0" xmlns="http://www.w3.org/2000/svg"
 width="3780.000000pt" height="2834.000000pt" viewBox="0 0 3780.000000 2834.000000"
 preserveAspectRatio="xMidYMid meet">

<g transform="translate(0.000000,2834.000000) scale(0.100000,-0.100000)"
fill="#000000" stroke="none">
<path d="M12960 16960 c-19 -19 -20 -33 -20 -217 0 -169 2 -199 17 -215 15
-17 15 -19 0 -36 -14 -15 -17 -42 -17 -152 0 -110 3 -137 17 -152 15 -17 15
-19 0 -36 -20 -22 -22 -39 -5 -44 7 -3 9 -11 3 -24 -4 -10 -7 -23 -5 -29 4
-10 15 -126 26 -255 2 -36 9 -74 15 -85 5 -11 11 -56 14 -100 8 -137 15 -209
25 -230 5 -11 11 -36 14 -55 15 -104 36 -189 47 -196 5 -3 9 -32 9 -64 0 -32
5 -62 10 -65 6 -3 10 -21 10 -39 0 -18 3 -36 7 -40 11 -11 33 -79 33 -104 0
-22 2 -28 33 -90 9 -18 14 -39 10 -48 -3 -8 -1 -25 5 -37 21 -43 52 -144 52
-170 0 -14 5 -29 10 -32 6 -3 10 -17 10 -30 0 -14 11 -31 27 -43 22 -16 25
-23 16 -34 -9 -11 -9 -20 2 -42 8 -16 15 -34 15 -42 0 -7 9 -29 20 -49 11 -20
20 -44 20 -55 0 -10 5 -22 10 -25 6 -3 10 -19 10 -35 0 -15 3 -30 8 -32 10 -4
52 -87 52 -103 0 -23 71 -149 93 -167 17 -13 19 -20 10 -29 -14 -14 -7 -37 25
-71 13 -14 22 -31 18 -36 -6 -10 19 -68 34 -77 13 -8 49 -83 43 -89 -4 -3 2
-16 13 -29 26 -30 44 -64 44 -82 0 -8 5 -15 10 -15 6 0 10 -9 10 -20 0 -11 5
-20 10 -20 6 0 10 -9 10 -20 0 -11 5 -20 10 -20 6 0 10 -6 10 -13 0 -7 9 -23
20 -35 11 -12 20 -25 20 -30 0 -5 7 -15 15 -22 9 -7 23 -29 32 -49 9 -20 32
-53 51 -73 20 -21 32 -43 29 -51 -3 -9 7 -27 24 -43 16 -15 29 -33 29 -39 0
-7 9 -20 20 -30 11 -10 20 -23 20 -30 0 -7 9 -20 20 -30 11 -10 20 -23 20 -30
0 -7 9 -20 20 -30 11 -10 20 -23 20 -30 0 -6 12 -22 26 -36 14 -13 32 -38 41
-56 8 -18 19 -33 24 -33 5 0 9 -6 9 -14 0 -7 29 -42 65 -76 37 -36 67 -75 70
-91 4 -15 24 -46 46 -69 21 -22 39 -44 39 -49 0 -15 271 -281 280 -276 4 3 13
-2 20 -10 7 -8 20 -15 29 -15 9 0 21 -8 28 -19 6 -10 24 -21 40 -24 104 -22
129 -24 141 -15 9 8 18 6 30 -6 10 -9 32 -16 48 -16 30 0 98 21 110 33 4 4 24
7 44 7 24 0 43 7 55 20 10 11 26 20 37 20 10 0 18 5 18 10 0 6 6 10 13 10 18
0 54 40 59 65 2 12 10 19 20 17 11 -2 18 6 20 20 2 15 10 23 22 23 13 0 23 11
29 30 5 17 19 41 31 55 44 50 56 96 63 239 3 64 0 103 -9 125 -7 17 -11 38
-10 47 4 22 -69 159 -101 191 -15 15 -27 32 -27 38 0 5 -9 10 -20 10 -13 0
-20 7 -20 18 0 10 -16 35 -35 55 -19 20 -35 41 -35 46 0 5 -8 11 -19 14 -17 4
-35 29 -60 85 -6 12 -17 22 -26 22 -9 0 -19 10 -24 23 -5 12 -18 31 -30 41
-11 11 -21 24 -21 31 0 6 -13 24 -30 40 -16 16 -30 34 -30 40 0 6 -16 26 -35
45 -19 19 -35 39 -35 45 0 7 -9 20 -19 29 -11 10 -23 31 -26 47 -4 15 -18 39
-31 51 -14 13 -33 41 -44 64 -10 22 -26 47 -35 54 -8 7 -15 18 -15 25 0 7 -7
18 -15 25 -17 14 -45 67 -45 87 0 7 -3 13 -8 13 -4 0 -13 15 -21 33 -8 17 -21
40 -29 50 -8 9 -20 25 -26 36 -6 10 -23 37 -38 59 -15 23 -25 48 -22 56 3 7 1
17 -5 21 -6 3 -11 15 -11 26 0 10 -3 19 -8 19 -4 0 -12 8 -17 19 -6 10 -23 37
-38 60 -15 23 -27 47 -26 54 3 16 -11 48 -28 69 -8 9 -12 21 -9 26 3 6 -8 36
-24 67 -17 31 -30 63 -30 71 0 7 -9 29 -20 49 -11 20 -20 42 -20 50 0 8 -9 30
-20 50 -11 20 -20 44 -20 55 0 10 -4 22 -10 25 -5 3 -10 17 -10 30 0 13 -4 27
-10 30 -5 3 -10 19 -10 36 0 16 -4 29 -10 29 -5 0 -10 11 -10 24 0 14 -4 28
-10 31 -5 3 -10 21 -10 39 0 17 -4 36 -8 42 -5 5 -17 35 -26 66 -10 32 -22 61
-27 64 -6 3 -7 14 -4 24 3 11 0 32 -8 47 -8 15 -12 33 -10 39 2 6 -3 16 -11
23 -7 6 -12 21 -9 31 3 11 1 26 -5 33 -6 7 -10 28 -10 46 1 18 -5 37 -13 42
-9 5 -14 29 -15 71 -2 77 -17 165 -31 179 -5 5 -8 32 -5 58 2 29 -1 58 -9 72
-7 13 -11 45 -10 71 1 26 -4 58 -11 70 -7 13 -11 45 -9 71 2 35 -2 54 -14 67
-15 16 -15 22 -5 35 10 12 10 18 0 30 -6 8 -8 19 -5 26 4 6 7 116 6 243 -2
195 -5 234 -18 248 -15 17 -15 20 0 36 13 14 17 38 17 91 0 40 5 81 10 91 6
10 6 21 2 24 -13 8 -13 68 0 83 6 7 8 20 4 28 -5 13 -73 15 -551 15 -532 0
-545 0 -565 -20z"/>
<path d="M24884 16966 c-3 -9 -3 -43 1 -78 11 -98 8 -720 -4 -843 -6 -60 -15
-148 -21 -195 -6 -47 -13 -116 -14 -153 -1 -37 -8 -73 -14 -79 -7 -7 -12 -27
-12 -45 0 -18 -4 -33 -10 -33 -6 0 -10 -27 -10 -60 0 -33 -4 -60 -10 -60 -5 0
-10 -18 -10 -39 0 -22 -4 -43 -10 -46 -5 -3 -10 -28 -10 -56 0 -27 -4 -57 -9
-67 -5 -9 -15 -37 -22 -62 -7 -25 -16 -49 -21 -54 -4 -6 -8 -20 -8 -33 0 -13
-4 -23 -10 -23 -5 0 -10 -18 -10 -40 0 -22 -4 -40 -10 -40 -5 0 -10 -13 -10
-30 0 -16 -4 -30 -10 -30 -5 0 -10 -13 -10 -30 0 -16 -4 -30 -10 -30 -5 0 -10
-18 -10 -40 0 -22 -4 -40 -10 -40 -5 0 -10 -13 -10 -30 0 -16 -4 -30 -10 -30
-5 0 -10 -9 -10 -20 0 -11 -4 -20 -10 -20 -5 0 -10 -11 -10 -25 0 -14 -4 -33
-9 -43 -9 -16 -22 -65 -21 -77 1 -9 -75 -150 -82 -153 -5 -2 -8 -12 -8 -22 0
-10 -4 -22 -10 -25 -5 -3 -10 -14 -10 -25 0 -20 -40 -103 -52 -108 -5 -2 -8
-12 -8 -23 0 -10 -4 -19 -10 -19 -5 0 -10 -9 -10 -20 0 -11 -4 -20 -10 -20 -5
0 -10 -9 -10 -20 0 -11 -4 -20 -10 -20 -5 0 -10 -9 -10 -20 0 -11 -4 -20 -10
-20 -5 0 -10 -9 -10 -20 0 -11 -4 -20 -10 -20 -5 0 -10 -7 -10 -15 0 -9 -9
-25 -20 -37 -11 -12 -20 -28 -20 -35 0 -7 -4 -13 -10 -13 -5 0 -10 -9 -10 -20
0 -11 -4 -20 -10 -20 -5 0 -10 -9 -10 -20 0 -11 -4 -20 -10 -20 -5 0 -10 -6
-10 -13 0 -20 -28 -73 -45 -87 -8 -7 -15 -19 -15 -26 0 -8 -4 -14 -9 -14 -5 0
-20 -24 -35 -53 -14 -29 -37 -64 -51 -77 -14 -13 -25 -29 -25 -37 0 -7 -4 -13
-8 -13 -5 0 -15 -12 -23 -27 -8 -16 -22 -37 -31 -47 -10 -11 -18 -25 -18 -31
0 -7 -9 -20 -20 -30 -11 -10 -20 -23 -20 -30 0 -6 -13 -24 -30 -40 -16 -16
-30 -34 -30 -40 0 -6 -11 -22 -25 -35 -14 -13 -25 -28 -25 -35 0 -6 -25 -35
-55 -65 -30 -30 -55 -59 -55 -65 0 -6 -36 -46 -80 -90 -44 -44 -80 -85 -80
-92 0 -7 -4 -13 -8 -13 -5 0 -15 -12 -23 -27 -8 -16 -22 -37 -31 -47 -10 -11
-18 -30 -18 -42 0 -13 -5 -26 -11 -30 -6 -3 -9 -18 -6 -33 3 -15 -1 -34 -9
-45 -18 -25 -20 -186 -2 -204 6 -6 11 -32 9 -56 -1 -24 3 -47 9 -51 5 -3 10
-15 10 -26 0 -10 5 -19 10 -19 6 0 10 -6 10 -13 0 -7 16 -28 35 -47 19 -19 35
-39 35 -45 0 -14 82 -95 96 -95 6 0 23 -13 39 -30 18 -19 39 -30 56 -30 15 0
31 -4 34 -10 3 -5 17 -10 30 -10 13 0 27 -4 30 -10 3 -5 16 -10 29 -10 12 0
27 -5 34 -12 9 -9 16 -8 29 4 19 16 59 18 80 5 7 -4 21 -3 32 3 11 5 27 7 35
4 9 -4 23 0 32 7 9 7 31 12 49 11 18 -2 36 2 40 8 3 5 15 10 26 10 10 0 19 5
19 10 0 6 6 10 13 10 7 0 26 14 42 30 16 17 34 30 40 30 15 0 55 43 55 58 0 7
11 17 25 22 14 5 25 14 25 20 0 6 16 28 35 48 19 20 35 42 35 48 0 6 29 38 65
71 36 33 65 66 65 72 0 7 13 26 30 44 16 18 30 37 30 43 0 5 14 23 30 39 17
16 30 33 30 39 0 6 17 27 37 48 24 25 37 48 38 66 0 20 5 27 19 27 11 0 21 6
24 14 3 8 16 27 30 43 15 16 26 41 27 56 0 20 5 27 20 27 11 0 21 8 23 18 2 9
7 17 12 17 4 0 20 25 34 55 15 30 32 57 37 60 5 4 18 25 28 48 11 23 31 53 45
66 14 14 26 30 26 38 0 7 5 13 10 13 6 0 10 7 10 15 0 9 9 26 20 37 11 12 18
29 15 38 -3 10 5 26 20 40 14 13 25 29 25 37 0 7 5 13 10 13 6 0 10 6 10 13 0
18 38 96 61 126 10 13 16 27 13 32 -3 5 6 23 20 39 14 17 23 37 20 44 -3 8 -1
17 5 20 6 4 24 35 41 70 16 35 37 69 45 76 8 7 15 23 15 36 0 13 5 24 10 24 6
0 10 9 10 20 0 11 5 20 10 20 6 0 10 9 10 20 0 11 5 20 10 20 6 0 10 14 10 30
0 17 5 30 10 30 6 0 10 9 10 19 0 11 5 23 10 26 6 3 10 14 10 25 0 10 14 44
30 75 17 31 30 67 30 80 0 13 14 49 30 80 17 31 30 66 30 76 0 10 5 19 10 19
6 0 10 16 10 35 0 19 9 50 20 70 11 20 20 46 20 58 0 24 22 92 33 103 4 4 7
18 7 31 0 12 5 23 10 23 6 0 10 18 10 39 0 22 4 42 9 45 8 5 16 42 24 116 3
23 10 42 38 105 5 11 10 43 11 70 1 28 4 55 8 60 9 13 28 82 35 125 3 19 11
62 16 95 6 33 12 86 14 118 1 33 8 64 14 70 6 6 11 30 11 53 0 24 5 46 11 50
7 4 10 41 8 103 -2 62 1 104 9 118 7 13 12 62 12 120 0 55 5 104 10 109 7 7 9
162 8 445 l-3 434 -563 3 c-487 2 -563 0 -568 -12z"/>
<path d="M12940 16510 c0 -5 5 -10 10 -10 6 0 10 5 10 10 0 6 -4 10 -10 10 -5
0 -10 -4 -10 -10z"/>
<path d="M16105 11410 c-3 -5 -24 -10 -45 -10 -22 0 -55 -9 -75 -20 -20 -11
-47 -20 -60 -20 -14 0 -25 -4 -25 -10 0 -5 -6 -10 -13 -10 -7 0 -26 -13 -42
-30 -16 -16 -34 -30 -40 -30 -15 0 -105 -93 -105 -108 0 -7 -4 -12 -8 -12 -12
0 -53 -80 -46 -91 3 -6 1 -15 -4 -22 -26 -31 -42 -106 -42 -197 0 -91 16 -166
42 -197 5 -7 7 -17 3 -23 -3 -6 5 -24 19 -40 13 -17 28 -40 31 -52 8 -26 114
-138 131 -138 6 0 19 -9 29 -20 10 -11 24 -20 32 -20 7 0 13 -4 13 -10 0 -5 9
-10 20 -10 11 0 20 -4 20 -10 0 -5 14 -10 30 -10 17 0 30 -4 30 -10 0 -6 28
-10 65 -10 36 0 74 -6 85 -12 16 -10 24 -10 41 0 16 10 24 10 35 1 10 -8 14
-8 14 0 0 6 9 11 20 11 11 0 20 -5 20 -12 0 -9 3 -9 12 0 15 15 48 16 48 1 0
-8 4 -8 13 -2 14 12 57 11 75 0 7 -5 19 -4 27 3 10 8 18 8 34 -1 16 -11 25
-10 46 1 21 11 30 12 46 1 16 -9 24 -10 35 0 11 9 18 9 26 1 16 -16 93 -15
118 0 16 10 24 10 40 0 24 -15 162 -16 177 -1 8 8 16 7 30 -2 13 -7 28 -9 39
-4 27 12 73 14 80 4 8 -13 58 -11 72 3 9 9 15 9 24 0 17 -17 499 -17 516 0 8
8 15 8 27 -2 12 -10 19 -10 27 -2 15 15 84 16 93 2 10 -16 1077 -14 1093 2 9
9 15 9 24 0 18 -18 2090 -17 2118 0 16 10 24 10 40 0 26 -16 162 -16 178 0 9
9 15 9 24 0 15 -15 60 -16 76 0 8 8 15 8 27 -2 12 -10 18 -10 30 0 12 10 19
10 27 2 17 -17 260 -16 276 0 9 9 15 9 24 0 17 -17 271 -17 298 0 16 10 24 10
40 0 25 -15 202 -16 217 -1 8 8 17 7 32 -3 17 -10 25 -10 42 0 16 10 24 10 35
1 9 -7 18 -8 27 -2 14 12 57 11 75 0 7 -5 18 -5 25 0 14 11 94 10 121 -2 11
-5 26 -4 37 3 10 7 50 12 88 12 39 0 73 5 76 10 3 6 24 10 46 10 21 0 39 5 39
10 0 6 9 10 20 10 11 0 20 5 20 10 0 6 6 10 13 10 8 0 22 9 32 20 10 11 23 20
29 20 14 0 126 111 126 125 0 6 9 17 20 25 11 8 20 20 20 27 0 7 4 21 9 31 16
31 34 100 28 109 -4 6 0 19 8 29 17 23 21 239 5 249 -5 3 -10 19 -10 36 0 16
-4 29 -10 29 -5 0 -10 9 -10 20 0 11 -4 20 -10 20 -5 0 -10 6 -10 13 0 7 -9
23 -20 35 -11 12 -20 25 -20 29 0 13 -114 123 -128 123 -7 0 -12 5 -12 10 0 6
-8 10 -19 10 -10 0 -24 7 -31 15 -20 24 -126 65 -166 65 -11 0 -25 5 -32 12
-8 8 -15 8 -27 -2 -12 -10 -19 -10 -27 -2 -16 16 -61 15 -76 0 -9 -9 -15 -9
-24 0 -17 17 -599 17 -616 0 -9 -9 -15 -9 -24 0 -18 18 -610 17 -639 0 -17
-10 -23 -10 -26 0 -6 17 -354 17 -371 0 -9 -9 -15 -9 -24 0 -13 13 -80 17 -92
5 -11 -11 -76 -13 -76 -2 0 14 -147 11 -171 -3 -17 -10 -23 -10 -26 0 -3 6
-13 12 -23 12 -10 0 -20 -6 -23 -12 -3 -10 -9 -10 -26 0 -32 19 -160 16 -183
-5 -17 -15 -19 -15 -36 0 -23 21 -171 24 -202 5 -17 -11 -22 -10 -30 2 -7 12
-12 12 -29 -4 -20 -18 -22 -18 -39 -3 -14 13 -38 17 -102 17 -64 0 -88 -4
-102 -17 -17 -15 -19 -15 -36 0 -16 15 -47 17 -230 17 -152 0 -218 -4 -233
-12 -17 -10 -23 -10 -26 0 -3 6 -13 12 -23 12 -10 0 -20 -6 -23 -12 -3 -10 -9
-10 -26 0 -29 17 -402 17 -419 0 -9 -9 -15 -9 -24 0 -17 17 -470 17 -499 0
-17 -10 -23 -10 -26 0 -6 15 -75 16 -91 0 -9 -9 -15 -9 -24 0 -9 9 -14 7 -24
-6 -11 -16 -13 -16 -31 1 -23 20 -64 22 -81 5 -9 -9 -15 -9 -24 0 -17 17 -251
16 -279 0 -17 -10 -23 -10 -26 0 -7 18 -93 15 -115 -5 -17 -15 -19 -15 -36 0
-22 20 -74 22 -103 5 -17 -10 -23 -10 -26 0 -3 6 -11 12 -19 12 -8 0 -24 -6
-35 -12 -17 -10 -23 -10 -26 0 -5 13 -35 16 -47 5 -11 -11 -76 -13 -76 -2 0
11 -113 12 -124 2 -12 -12 -70 -12 -79 1 -6 8 -10 8 -14 -1 -6 -15 -43 -17
-43 -3 0 6 -9 10 -20 10 -11 0 -20 -4 -20 -9 0 -4 -18 -8 -40 -8 -22 0 -40 4
-40 8 0 13 -47 11 -71 -3 -17 -10 -23 -10 -26 0 -3 9 -39 12 -129 12 -81 0
-132 -4 -145 -12 -17 -10 -23 -10 -26 0 -3 6 -11 12 -19 12 -8 0 -24 -6 -35
-12 -17 -10 -23 -10 -26 0 -6 15 -75 16 -91 0 -9 -9 -15 -9 -24 0 -15 15 -144
16 -153 2z"/>
<path d="M17987 9914 c-11 -12 -8 -59 5 -72 9 -9 9 -15 0 -24 -16 -16 -17
-219 -1 -235 10 -10 7 -19 -18 -62 -2 -2 -11 6 -22 17 -10 12 -26 22 -35 22
-9 0 -16 5 -16 10 0 6 -9 10 -20 10 -11 0 -20 5 -20 10 0 6 -9 10 -19 10 -11
0 -23 5 -26 10 -4 6 -53 10 -115 10 -62 0 -111 -4 -115 -10 -3 -5 -15 -10 -26
-10 -10 0 -19 -4 -19 -10 0 -5 -9 -10 -20 -10 -11 0 -20 -4 -20 -10 0 -5 -6
-10 -13 -10 -16 0 -147 -131 -147 -148 0 -6 -4 -12 -10 -12 -5 0 -10 -9 -10
-20 0 -11 -4 -20 -10 -20 -5 0 -10 -8 -10 -18 0 -10 -5 -23 -11 -29 -15 -15
-16 -270 0 -286 6 -6 11 -24 11 -39 0 -15 5 -28 10 -28 6 0 10 -9 10 -20 0
-11 5 -20 10 -20 6 0 10 -6 10 -13 0 -16 131 -147 148 -147 6 0 12 -4 12 -10
0 -5 9 -10 20 -10 11 0 20 -4 20 -10 0 -5 13 -10 29 -10 17 0 33 -4 36 -10 3
-6 50 -10 105 -10 55 0 102 4 105 10 3 6 19 10 36 10 16 0 29 5 29 10 0 6 6
10 14 10 7 0 27 14 44 30 18 17 34 30 36 30 3 0 6 -17 8 -37 l3 -38 115 0 115
0 0 595 0 595 -111 3 c-60 1 -113 -1 -117 -4z m-187 -504 c0 -5 14 -10 30 -10
17 0 30 -4 30 -10 0 -5 7 -10 15 -10 20 0 85 -65 85 -85 0 -8 3 -15 8 -15 4 0
13 -12 20 -27 14 -32 16 -153 2 -153 -5 0 -10 -13 -10 -30 0 -16 -4 -30 -10
-30 -5 0 -10 -7 -10 -15 0 -9 -16 -31 -35 -50 -19 -19 -41 -35 -50 -35 -8 0
-15 -4 -15 -10 0 -5 -13 -10 -30 -10 -16 0 -30 -4 -30 -10 0 -5 -22 -10 -50
-10 -27 0 -50 5 -50 10 0 6 -13 10 -30 10 -16 0 -30 5 -30 10 0 6 -7 10 -15
10 -19 0 -65 44 -65 62 0 8 -9 20 -20 28 -14 10 -20 26 -20 52 0 21 -4 38 -10
38 -5 0 -10 18 -10 40 0 22 5 40 10 40 6 0 10 18 10 40 0 22 5 40 10 40 6 0
10 7 10 15 0 9 16 31 35 50 19 19 41 35 50 35 8 0 15 5 15 10 0 6 14 10 30 10
17 0 30 5 30 10 0 6 23 10 50 10 28 0 50 -4 50 -10z"/>
<path d="M20747 9914 c-4 -4 -7 -76 -7 -160 l0 -153 -57 -3 -58 -3 2 -40 c4
-56 4 -66 1 -100 -3 -30 -3 -30 54 -33 l58 -3 2 -347 3 -347 115 0 115 0 3
348 2 347 70 0 70 0 0 33 c0 18 -5 38 -12 45 -8 8 -8 15 1 26 7 8 11 27 9 43
-3 27 -5 28 -70 31 l-67 3 -3 157 -3 157 -111 3 c-60 1 -113 -1 -117 -4z"/>
<path d="M16845 9888 c-3 -7 -4 -272 -3 -588 l3 -575 115 0 115 0 0 585 0 585
-113 3 c-84 2 -114 -1 -117 -10z"/>
<path d="M18765 9610 c-3 -5 -19 -10 -36 -10 -16 0 -29 -4 -29 -10 0 -5 -9
-10 -20 -10 -11 0 -20 -4 -20 -10 0 -5 -6 -10 -13 -10 -7 0 -23 -9 -35 -20
-12 -11 -25 -20 -30 -20 -10 0 -82 -73 -82 -83 0 -4 -9 -17 -20 -29 -11 -12
-20 -28 -20 -35 0 -7 -4 -13 -10 -13 -5 0 -10 -13 -10 -30 0 -16 -4 -30 -10
-30 -6 0 -10 -27 -10 -60 0 -33 -4 -60 -10 -60 -5 0 -10 -11 -10 -24 0 -14 5
-28 10 -31 6 -3 10 -33 10 -66 0 -33 4 -59 10 -59 6 0 10 -9 10 -20 0 -11 5
-20 10 -20 6 0 10 -6 10 -13 0 -7 9 -23 20 -35 11 -12 20 -25 20 -30 0 -12 74
-82 86 -82 6 0 19 -9 29 -20 10 -11 24 -20 32 -20 7 0 13 -4 13 -10 0 -5 9
-10 20 -10 11 0 20 -4 20 -10 0 -5 13 -10 29 -10 17 0 33 -4 36 -10 4 -6 60
-10 135 -10 75 0 131 4 135 10 3 6 19 10 36 10 16 0 29 5 29 10 0 6 13 10 28
10 16 0 34 8 42 20 8 11 19 20 25 20 6 0 33 22 60 50 48 48 48 50 30 70 -10
11 -29 20 -42 20 -12 0 -23 5 -23 10 0 6 -9 10 -20 10 -11 0 -20 5 -20 10 0 6
-8 10 -18 10 -10 0 -23 5 -29 11 -11 11 -53 -7 -53 -23 0 -5 -9 -8 -20 -8 -11
0 -20 -4 -20 -10 0 -5 -18 -10 -40 -10 -22 0 -40 -4 -40 -10 0 -6 -27 -10 -60
-10 -33 0 -60 4 -60 10 0 6 -18 10 -40 10 -22 0 -40 5 -40 10 0 6 -7 10 -16
10 -21 0 -84 63 -84 84 0 9 -4 16 -10 16 -5 0 -10 9 -10 20 0 19 8 20 368 22
l367 3 3 68 c2 42 -1 67 -8 67 -5 0 -10 18 -10 40 0 22 -4 40 -10 40 -5 0 -10
14 -10 30 0 17 -4 30 -10 30 -5 0 -10 6 -10 13 0 7 -9 23 -20 35 -11 12 -20
25 -20 30 0 10 -73 82 -83 82 -4 0 -17 9 -29 20 -12 11 -28 20 -35 20 -7 0
-13 5 -13 10 0 6 -9 10 -20 10 -11 0 -20 5 -20 10 0 6 -13 10 -29 10 -17 0
-33 5 -36 10 -4 6 -57 10 -125 10 -68 0 -121 -4 -125 -10z m195 -200 c0 -5 14
-10 30 -10 17 0 30 -4 30 -10 0 -5 7 -10 15 -10 20 0 85 -65 85 -85 0 -8 5
-15 10 -15 6 0 10 -4 10 -10 0 -6 -87 -10 -240 -10 -223 0 -240 1 -240 18 0
10 9 24 20 32 11 8 20 22 20 32 0 11 7 18 20 18 11 0 20 5 20 10 0 6 9 10 20
10 11 0 20 5 20 10 0 6 14 10 30 10 17 0 30 5 30 10 0 6 27 10 60 10 33 0 60
-4 60 -10z"/>
<path d="M19855 9608 c-16 -6 -38 -14 -47 -19 -10 -5 -25 -9 -33 -9 -8 0 -15
-4 -15 -10 0 -5 -6 -10 -13 -10 -16 0 -147 -131 -147 -148 0 -6 -4 -12 -10
-12 -5 0 -10 -7 -10 -15 0 -8 -4 -23 -9 -33 -16 -33 -31 -89 -31 -120 0 -17
-4 -34 -10 -37 -5 -3 -10 -19 -10 -35 0 -16 5 -32 10 -35 6 -3 10 -33 10 -66
0 -33 4 -59 10 -59 6 0 10 -9 10 -20 0 -11 5 -20 10 -20 6 0 10 -9 10 -20 0
-11 5 -20 10 -20 6 0 10 -6 10 -13 0 -16 131 -147 148 -147 6 0 12 -4 12 -10
0 -5 9 -10 20 -10 11 0 20 -4 20 -10 0 -5 13 -10 29 -10 17 0 33 -4 36 -10 3
-6 50 -10 105 -10 55 0 102 4 105 10 3 6 16 10 29 10 13 0 31 9 41 20 10 11
25 20 34 20 9 0 23 9 31 20 20 28 30 25 30 -9 0 -46 17 -52 131 -49 l104 3 0
435 0 435 -107 3 c-92 2 -108 0 -108 -13 0 -13 -8 -32 -27 -64 -2 -2 -11 6
-22 17 -10 12 -26 22 -35 22 -9 0 -16 5 -16 10 0 6 -9 10 -20 10 -11 0 -20 5
-20 10 0 6 -9 10 -19 10 -11 0 -23 5 -26 10 -8 13 -180 11 -220 -2z m205 -198
c0 -5 14 -10 30 -10 17 0 30 -4 30 -10 0 -5 7 -10 15 -10 20 0 85 -65 85 -85
0 -8 5 -15 10 -15 6 0 10 -13 10 -30 0 -16 5 -30 10 -30 6 0 10 -27 10 -60 0
-33 -4 -60 -10 -60 -5 0 -10 -13 -10 -30 0 -16 -4 -30 -10 -30 -5 0 -10 -7
-10 -15 0 -9 -16 -31 -35 -50 -19 -19 -41 -35 -50 -35 -8 0 -15 -4 -15 -10 0
-5 -13 -10 -30 -10 -16 0 -30 -4 -30 -10 0 -5 -22 -10 -50 -10 -27 0 -50 5
-50 10 0 6 -13 10 -30 10 -16 0 -30 5 -30 10 0 6 -7 10 -15 10 -19 0 -65 44
-65 62 0 8 -9 20 -20 28 -14 10 -20 26 -20 52 0 21 -4 38 -10 38 -5 0 -10 18
-10 40 0 22 5 40 10 40 6 0 10 18 10 40 0 22 5 40 10 40 6 0 10 7 10 15 0 9
16 31 35 50 19 19 41 35 50 35 8 0 15 5 15 10 0 6 14 10 30 10 17 0 30 5 30
10 0 6 23 10 50 10 28 0 50 -4 50 -10z"/>
<path d="M21545 9610 c-3 -5 -19 -10 -36 -10 -16 0 -29 -4 -29 -10 0 -5 -9
-10 -20 -10 -11 0 -20 -4 -20 -10 0 -5 -6 -10 -13 -10 -7 0 -23 -9 -35 -20
-12 -11 -25 -20 -29 -20 -14 -1 -83 -70 -83 -83 0 -7 -9 -19 -20 -27 -11 -8
-20 -22 -20 -32 0 -10 -4 -18 -10 -18 -5 0 -10 -13 -10 -30 0 -16 -4 -30 -10
-30 -5 0 -10 -20 -10 -44 0 -25 -5 -48 -10 -51 -8 -5 -7 -11 1 -21 9 -11 9
-17 -1 -29 -9 -10 -9 -15 -1 -15 7 0 11 -25 11 -70 0 -40 4 -70 10 -70 6 0 10
-9 10 -20 0 -11 5 -20 10 -20 6 0 10 -6 10 -13 0 -7 9 -23 20 -35 11 -12 20
-25 20 -29 0 -13 94 -103 108 -103 7 0 12 -4 12 -10 0 -5 9 -10 20 -10 11 0
20 -4 20 -10 0 -5 11 -10 25 -10 13 0 40 -9 60 -20 30 -17 54 -20 160 -20 72
0 126 4 130 10 3 6 19 10 36 10 16 0 29 5 29 10 0 6 10 10 23 10 13 0 33 9 45
20 12 11 26 20 32 20 13 0 100 86 100 98 0 16 -36 42 -58 42 -12 0 -22 5 -22
10 0 6 -9 10 -20 10 -11 0 -20 5 -20 10 0 6 -9 10 -20 10 -11 0 -20 5 -20 10
0 18 -35 11 -50 -10 -8 -11 -22 -20 -32 -20 -10 0 -18 -4 -18 -10 0 -5 -18
-10 -40 -10 -22 0 -40 -4 -40 -10 0 -6 -27 -10 -60 -10 -33 0 -60 4 -60 10 0
6 -18 10 -40 10 -22 0 -40 5 -40 10 0 6 -7 10 -15 10 -20 0 -85 65 -85 85 0 8
-4 15 -10 15 -5 0 -10 9 -10 20 0 19 8 20 368 22 l367 3 3 68 c2 42 -1 67 -8
67 -5 0 -10 18 -10 40 0 22 -4 40 -10 40 -5 0 -10 14 -10 30 0 17 -4 30 -10
30 -5 0 -10 6 -10 13 0 7 -9 23 -20 35 -11 12 -20 25 -20 30 0 10 -73 82 -83
82 -4 0 -17 9 -29 20 -12 11 -28 20 -35 20 -7 0 -13 5 -13 10 0 6 -9 10 -20
10 -11 0 -20 5 -20 10 0 6 -13 10 -29 10 -17 0 -33 5 -36 10 -4 6 -57 10 -125
10 -68 0 -121 -4 -125 -10z m195 -200 c0 -5 14 -10 30 -10 17 0 30 -4 30 -10
0 -5 7 -10 15 -10 20 0 85 -65 85 -85 0 -8 5 -15 10 -15 6 0 10 -4 10 -10 0
-6 -87 -10 -240 -10 -223 0 -240 1 -240 18 0 10 9 24 20 32 11 8 20 22 20 32
0 11 7 18 18 18 9 0 23 9 30 20 9 15 23 20 52 20 22 0 40 5 40 10 0 6 27 10
60 10 33 0 60 -4 60 -10z"/>
<path d="M21360 8260 c-18 -18 -20 -32 -20 -140 0 -73 -4 -120 -10 -120 -5 0
-10 5 -10 10 0 6 -7 10 -15 10 -8 0 -30 9 -50 20 -27 15 -54 20 -110 20 -40 0
-77 -4 -80 -10 -3 -5 -15 -10 -26 -10 -10 0 -19 -4 -19 -10 0 -5 -6 -10 -13
-10 -16 0 -107 -91 -107 -108 0 -7 -4 -12 -10 -12 -5 0 -10 -13 -10 -30 0 -16
-4 -30 -10 -30 -5 0 -10 -24 -10 -54 0 -30 5 -58 10 -61 6 -3 10 -24 10 -46 0
-21 5 -39 10 -39 6 0 10 -6 10 -13 0 -16 91 -107 108 -107 7 0 12 -4 12 -10 0
-5 9 -10 19 -10 11 0 23 -4 26 -10 3 -5 39 -10 80 -10 62 0 82 5 130 30 67 35
65 35 65 11 0 -32 24 -42 92 -39 l63 3 0 395 0 395 -57 3 c-47 2 -61 -1 -78
-18z m-63 -385 c41 -43 43 -48 43 -106 0 -55 -3 -62 -35 -94 -19 -19 -41 -35
-50 -35 -8 0 -15 -4 -15 -10 0 -5 -22 -10 -50 -10 -27 0 -50 5 -50 10 0 6 -13
10 -28 10 -32 0 -52 16 -52 42 0 10 -4 18 -10 18 -5 0 -10 9 -10 20 0 11 -4
20 -10 20 -5 0 -10 18 -10 40 0 22 5 40 10 40 6 0 10 7 10 15 0 25 46 65 75
65 14 0 25 5 25 10 0 6 26 10 57 10 54 0 58 -2 100 -45z"/>
<path d="M17645 8050 c-3 -5 -15 -10 -26 -10 -10 0 -19 -4 -19 -10 0 -5 -6
-10 -13 -10 -16 0 -107 -91 -107 -108 0 -7 -4 -12 -10 -12 -5 0 -10 -13 -10
-28 0 -15 -5 -33 -11 -39 -15 -15 0 -142 24 -193 14 -33 98 -120 114 -120 7 0
13 -4 13 -10 0 -5 9 -10 19 -10 11 0 23 -4 26 -10 3 -5 42 -10 85 -10 43 0 82
5 85 10 3 6 18 10 33 10 16 0 34 8 42 20 20 27 28 25 32 -7 3 -28 4 -28 78
-28 l75 0 0 285 0 285 -75 0 c-74 0 -75 0 -78 -27 -3 -26 -22 -41 -22 -18 0 6
-9 10 -20 10 -11 0 -20 5 -20 10 0 6 -9 10 -19 10 -11 0 -23 5 -26 10 -3 6
-42 10 -85 10 -43 0 -82 -4 -85 -10z m175 -140 c0 -5 7 -10 15 -10 9 0 31 -16
50 -35 32 -32 35 -39 35 -95 0 -56 -3 -63 -35 -95 -19 -19 -41 -35 -50 -35 -8
0 -15 -4 -15 -10 0 -5 -22 -10 -50 -10 -27 0 -50 5 -50 10 0 6 -9 10 -20 10
-11 0 -20 5 -20 10 0 6 -9 10 -20 10 -13 0 -20 7 -20 20 0 11 -4 20 -10 20 -5
0 -10 9 -10 20 0 11 -4 20 -10 20 -5 0 -10 18 -10 40 0 22 5 40 10 40 6 0 10
7 10 15 0 25 46 65 75 65 14 0 25 5 25 10 0 6 23 10 50 10 28 0 50 -4 50 -10z"/>
<path d="M18314 8046 c-38 -21 -94 -75 -94 -91 0 -8 -4 -15 -10 -15 -5 0 -10
-13 -10 -30 0 -16 5 -30 10 -30 6 0 10 -7 10 -15 0 -20 85 -105 105 -105 8 0
15 -4 15 -10 0 -5 9 -10 20 -10 11 0 20 -4 20 -10 0 -5 9 -10 20 -10 11 0 20
-4 20 -10 0 -5 7 -10 16 -10 20 0 44 -24 44 -44 0 -9 -8 -16 -20 -16 -11 0
-20 -4 -20 -10 0 -5 -13 -10 -30 -10 -16 0 -30 5 -30 10 0 6 -12 10 -26 10
-15 0 -34 10 -44 23 l-18 22 -46 -48 c-25 -26 -46 -52 -46 -57 0 -13 63 -69
97 -87 33 -17 176 -17 206 0 36 20 87 70 102 101 17 33 20 106 5 106 -5 0 -10
7 -10 15 0 20 -45 65 -65 65 -8 0 -15 5 -15 10 0 6 -9 10 -20 10 -11 0 -20 5
-20 10 0 6 -9 10 -20 10 -11 0 -20 5 -20 10 0 6 -9 10 -20 10 -11 0 -20 5 -20
10 0 6 -9 10 -20 10 -23 0 -27 25 -6 46 17 16 66 19 66 4 0 -5 7 -10 16 -10 9
0 24 -10 34 -22 l18 -23 46 48 c25 26 46 52 46 57 0 13 -63 69 -97 87 -31 16
-160 16 -189 -1z"/>
<path d="M18945 8050 c-3 -5 -19 -10 -36 -10 -16 0 -29 -4 -29 -10 0 -5 -6
-10 -12 -10 -18 0 -128 -109 -128 -126 0 -8 -4 -14 -10 -14 -5 0 -10 -9 -10
-20 0 -11 -4 -20 -10 -20 -5 0 -10 -24 -10 -54 0 -30 5 -58 10 -61 6 -3 10
-19 10 -36 0 -16 5 -29 10 -29 6 0 10 -6 10 -13 0 -16 111 -127 128 -127 7 0
12 -4 12 -10 0 -5 9 -10 19 -10 11 0 23 -4 26 -10 4 -6 53 -10 115 -10 62 0
111 4 115 10 3 6 16 10 29 10 12 0 32 9 44 20 12 11 24 20 29 20 12 0 63 53
63 67 0 7 -8 13 -18 13 -10 0 -24 9 -32 20 -8 11 -22 20 -32 20 -10 0 -18 5
-18 10 0 18 -35 11 -50 -10 -8 -12 -26 -20 -42 -20 -15 0 -28 -4 -28 -10 0 -6
-27 -10 -60 -10 -33 0 -60 4 -60 10 0 6 -9 10 -20 10 -11 0 -20 5 -20 10 0 6
-7 10 -16 10 -20 0 -44 24 -44 44 0 9 -4 16 -10 16 -5 0 -10 18 -10 40 0 22 5
40 10 40 6 0 10 12 10 26 0 29 21 54 44 54 9 0 16 5 16 10 0 6 14 10 30 10 17
0 30 5 30 10 0 6 23 10 50 10 28 0 50 -4 50 -10 0 -5 13 -10 28 -10 16 0 34
-8 42 -20 8 -11 26 -20 40 -20 14 0 32 9 40 20 8 11 20 20 28 20 15 0 42 24
42 37 0 11 -53 63 -63 63 -5 0 -17 9 -29 20 -12 11 -32 20 -44 20 -13 0 -26 5
-29 10 -3 6 -50 10 -105 10 -55 0 -102 -4 -105 -10z"/>
<path d="M19665 8050 c-3 -5 -16 -10 -29 -10 -12 0 -32 -9 -44 -20 -12 -11
-25 -20 -30 -20 -11 0 -62 -54 -62 -66 0 -5 -9 -16 -20 -24 -12 -8 -20 -26
-20 -42 0 -15 -4 -28 -10 -28 -6 0 -10 -30 -10 -70 0 -40 4 -70 10 -70 6 0 10
-13 10 -28 0 -16 8 -34 20 -42 11 -8 20 -19 20 -25 0 -12 52 -65 63 -65 5 0
17 -9 29 -20 12 -11 32 -20 44 -20 13 0 26 -4 29 -10 3 -6 50 -10 105 -10 55
0 102 4 105 10 3 6 16 10 29 10 12 0 32 9 44 20 12 11 24 20 29 20 12 0 63 53
63 67 0 7 -9 13 -20 13 -11 0 -20 5 -20 10 0 6 -9 10 -20 10 -11 0 -20 5 -20
10 0 6 -18 10 -40 10 -22 0 -40 -4 -40 -10 0 -5 -13 -10 -30 -10 -16 0 -30 -4
-30 -10 0 -5 -22 -10 -50 -10 -27 0 -50 5 -50 10 0 6 -13 10 -30 10 -16 0 -30
5 -30 10 0 6 -9 10 -20 10 -13 0 -20 7 -20 20 0 11 -4 20 -10 20 -5 0 -10 5
-10 10 0 6 87 10 240 10 l240 0 0 70 c0 40 -4 70 -10 70 -5 0 -10 9 -10 20 0
11 -4 20 -10 20 -5 0 -10 6 -10 13 0 16 -91 107 -108 107 -7 0 -12 5 -12 10 0
6 -9 10 -19 10 -11 0 -23 5 -26 10 -3 6 -50 10 -105 10 -55 0 -102 -4 -105
-10z m155 -140 c0 -5 11 -10 25 -10 24 0 75 -35 75 -52 0 -4 -67 -8 -150 -8
-143 0 -150 1 -150 20 0 13 7 20 20 20 11 0 20 5 20 10 0 6 14 10 30 10 17 0
30 5 30 10 0 6 23 10 50 10 28 0 50 -4 50 -10z"/>
<path d="M20205 8048 c-3 -7 -4 -137 -3 -288 l3 -275 75 0 75 0 3 178 c1 107
6 177 12 177 6 0 10 7 10 16 0 20 24 44 44 44 9 0 16 5 16 10 0 6 16 10 35 10
38 0 85 -36 85 -65 0 -8 4 -15 10 -15 6 0 11 -70 12 -177 l3 -178 75 0 75 0 3
218 c1 142 -1 217 -8 217 -5 0 -10 10 -10 23 0 23 -53 80 -97 105 -27 14 -169
16 -178 2 -3 -5 -14 -10 -23 -10 -10 0 -24 -9 -32 -20 -20 -27 -28 -25 -32 8
-3 26 -5 27 -76 30 -52 2 -74 -1 -77 -10z"/>
<path d="M18405 6988 c-3 -7 -4 -168 -3 -358 l3 -345 68 -3 67 -3 -2 358 -3
358 -63 3 c-44 2 -64 -1 -67 -10z"/>
<path d="M20427 6994 c-4 -4 -7 -63 -7 -131 0 -67 -4 -123 -8 -123 -4 0 -14 9
-22 20 -8 12 -26 20 -42 20 -15 0 -30 5 -33 10 -3 6 -34 10 -69 10 -63 0 -112
-16 -136 -45 -7 -8 -17 -15 -23 -15 -16 0 -67 -51 -67 -67 0 -7 -4 -13 -10
-13 -5 0 -10 -9 -10 -19 0 -11 -4 -23 -10 -26 -5 -3 -10 -37 -10 -75 0 -38 5
-72 10 -75 6 -3 10 -15 10 -26 0 -10 5 -19 10 -19 6 0 10 -6 10 -13 0 -16 72
-87 88 -87 7 0 12 -4 12 -10 0 -5 9 -10 20 -10 11 0 20 -4 20 -10 0 -6 37 -10
90 -10 53 0 90 4 90 10 0 6 9 10 20 10 11 0 20 5 20 10 0 6 9 10 20 10 11 0
20 -7 20 -15 0 -18 34 -27 91 -23 l44 3 0 355 0 355 -60 3 c-34 2 -64 0 -68
-4z m-107 -324 c0 -5 7 -10 15 -10 9 0 31 -16 50 -35 31 -30 35 -41 35 -85 0
-44 -4 -55 -35 -85 -19 -19 -41 -35 -50 -35 -8 0 -15 -4 -15 -10 0 -5 -22 -10
-50 -10 -27 0 -50 5 -50 10 0 6 -7 10 -15 10 -20 0 -65 45 -65 65 0 8 -4 15
-10 15 -5 0 -10 18 -10 40 0 22 5 40 10 40 6 0 10 7 10 15 0 20 45 65 65 65 8
0 15 5 15 10 0 6 23 10 50 10 28 0 50 -4 50 -10z"/>
<path d="M18800 6778 c-19 -11 -37 -23 -40 -27 -3 -3 -14 -11 -25 -17 -11 -6
-25 -21 -31 -32 -6 -12 -18 -30 -27 -40 -10 -10 -17 -24 -17 -30 0 -7 -4 -12
-10 -12 -6 0 -10 -33 -10 -80 0 -47 4 -80 10 -80 6 0 10 -9 10 -20 0 -11 5
-20 10 -20 6 0 10 -7 10 -15 0 -20 45 -65 64 -65 9 0 21 -9 28 -20 8 -12 24
-20 40 -20 16 0 28 -4 28 -10 0 -6 40 -10 100 -10 60 0 100 4 100 10 0 6 13
10 28 10 16 0 34 8 42 20 8 11 20 20 28 20 18 0 42 25 42 44 0 9 -6 16 -13 16
-18 0 -67 24 -67 33 0 4 -13 7 -30 7 -16 0 -30 -3 -30 -7 0 -5 -12 -14 -27
-20 -32 -15 -133 -17 -133 -3 0 6 -13 10 -28 10 -32 0 -52 16 -52 42 0 10 -4
18 -10 18 -5 0 -10 5 -10 10 0 6 80 10 220 10 l220 0 0 54 c0 30 -4 58 -10 61
-5 3 -10 16 -10 29 0 25 -67 96 -92 96 -9 0 -18 6 -21 14 -12 30 -68 46 -161
45 -73 0 -98 -5 -126 -21z m212 -110 c32 -19 68 -50 68 -60 0 -4 -63 -8 -140
-8 -133 0 -140 1 -140 20 0 13 7 20 20 20 11 0 20 5 20 10 0 6 9 10 20 10 11
0 20 5 20 10 0 14 106 12 132 -2z"/>
<path d="M19485 6790 c-3 -5 -15 -10 -26 -10 -10 0 -19 -4 -19 -10 0 -5 -6
-10 -13 -10 -16 0 -87 -72 -87 -88 0 -7 -4 -12 -10 -12 -5 0 -10 -13 -10 -30
0 -16 -4 -30 -10 -30 -6 0 -10 -30 -10 -70 0 -40 4 -70 10 -70 6 0 10 -9 10
-20 0 -11 5 -20 10 -20 6 0 10 -7 10 -15 0 -9 16 -31 35 -50 19 -19 41 -35 50
-35 8 0 15 -4 15 -10 0 -5 9 -10 20 -10 11 0 20 -4 20 -10 0 -6 37 -10 90 -10
53 0 90 4 90 10 0 6 9 10 20 10 11 0 20 5 20 10 0 6 9 10 20 10 11 0 20 -7 20
-15 0 -18 34 -27 91 -23 l44 3 0 255 0 255 -44 3 c-57 4 -91 -5 -91 -23 0 -17
-35 -21 -45 -5 -3 6 -19 10 -35 10 -16 0 -32 5 -35 10 -3 6 -35 10 -70 10 -35
0 -67 -4 -70 -10z m155 -120 c0 -5 7 -10 15 -10 9 0 31 -16 50 -35 31 -30 35
-41 35 -85 0 -44 -4 -55 -35 -85 -19 -19 -41 -35 -50 -35 -8 0 -15 -4 -15 -10
0 -5 -22 -10 -50 -10 -27 0 -50 5 -50 10 0 6 -7 10 -15 10 -20 0 -65 45 -65
65 0 8 -4 15 -10 15 -5 0 -10 14 -10 30 0 17 5 30 10 30 6 0 10 11 10 25 0 29
40 75 65 75 8 0 15 5 15 10 0 6 23 10 50 10 28 0 50 -4 50 -10z"/>
<path d="M18725 5870 c-3 -5 -24 -10 -46 -10 -21 0 -39 -4 -39 -10 0 -5 -6
-10 -13 -10 -7 0 -22 -8 -33 -17 -11 -10 -29 -23 -39 -29 -10 -6 -23 -19 -29
-29 -6 -11 -16 -24 -21 -31 -6 -6 -28 -47 -49 -90 -21 -43 -42 -87 -46 -96 -6
-11 -5 -18 3 -21 9 -3 9 -9 0 -26 -14 -23 -18 -162 -5 -177 5 -5 14 -29 21
-54 17 -57 52 -130 63 -130 4 0 8 -6 8 -13 0 -15 71 -87 86 -87 6 0 19 -9 29
-20 10 -11 28 -20 41 -20 13 0 26 -4 29 -10 4 -7 280 -10 795 -10 515 0 791 3
795 10 3 6 16 10 29 10 13 0 31 9 41 20 10 11 24 20 31 20 7 0 14 10 16 23 2
12 8 22 13 22 13 0 95 89 95 104 0 6 5 11 10 11 6 0 10 9 10 20 0 11 5 20 10
20 6 0 10 18 10 40 0 22 5 40 10 40 6 0 10 35 10 84 0 47 -4 88 -10 91 -5 3
-10 23 -10 44 0 56 -61 166 -133 239 -34 34 -67 62 -74 62 -7 0 -13 5 -13 10
0 6 -13 10 -30 10 -16 0 -30 5 -30 10 0 7 -261 10 -764 10 -499 0 -767 -3
-771 -10z"/>
<path d="M17833 2933 c-10 -4 -13 -88 -13 -374 l0 -370 38 3 37 3 3 373 2 372
-27 -1 c-16 0 -34 -3 -40 -6z"/>
<path d="M21737 2933 c-4 -3 -7 -50 -7 -104 l0 -98 -42 -3 c-40 -3 -43 -5 -46
-35 -3 -33 -3 -33 42 -33 l46 0 0 -236 0 -235 38 3 37 3 3 232 2 232 53 3 c51
3 52 4 55 36 l3 32 -55 0 -56 0 0 105 0 105 -33 0 c-19 0 -37 -3 -40 -7z"/>
<path d="M22310 2929 c-114 -22 -229 -112 -278 -217 -24 -50 -27 -69 -27 -162
0 -96 3 -110 29 -164 57 -115 156 -186 292 -208 124 -21 266 18 353 97 47 43
50 57 17 74 -22 12 -29 10 -77 -27 -74 -55 -141 -76 -232 -70 -181 12 -301
134 -302 308 0 63 5 85 29 133 87 179 353 224 509 87 35 -31 40 -32 64 -19 37
20 39 37 7 70 -79 82 -246 125 -384 98z"/>
<path d="M23527 2933 c-4 -3 -7 -172 -7 -375 l0 -369 38 3 37 3 3 373 2 372
-33 0 c-19 0 -37 -3 -40 -7z"/>
<path d="M23727 2933 c-4 -3 -7 -172 -7 -375 l0 -369 38 3 37 3 3 373 2 372
-33 0 c-19 0 -37 -3 -40 -7z"/>
<path d="M15196 2899 l-26 -20 0 -345 0 -344 148 0 c152 0 254 15 312 45 49
25 105 87 136 151 26 54 29 68 29 164 0 99 -2 110 -33 172 -71 145 -193 198
-458 198 -67 0 -86 -4 -108 -21z m336 -80 c70 -26 124 -73 154 -135 25 -51 29
-71 29 -144 0 -76 -3 -91 -30 -139 -55 -99 -134 -131 -325 -131 l-110 0 0 286
0 287 123 -6 c67 -3 139 -11 159 -18z"/>
<path d="M16129 2731 c-49 -10 -121 -54 -155 -93 -90 -108 -88 -264 5 -370
111 -126 354 -108 447 32 l28 42 -25 19 -24 18 -45 -49 c-51 -57 -99 -80 -165
-80 -93 0 -175 59 -200 144 -8 27 -15 51 -15 53 0 1 109 4 243 5 l242 3 3 37
c4 43 -22 108 -62 155 -54 64 -184 104 -277 84z m147 -80 c41 -19 98 -79 107
-112 5 -18 -4 -19 -194 -19 -109 0 -199 2 -199 5 0 14 40 82 57 97 53 48 157
62 229 29z"/>
<path d="M17369 2731 c-49 -10 -121 -54 -155 -93 -90 -108 -88 -264 5 -370
111 -126 354 -108 447 32 l28 42 -25 19 -24 18 -45 -49 c-51 -57 -99 -80 -165
-80 -93 0 -175 59 -200 144 -8 27 -15 51 -15 53 0 1 109 4 243 5 l242 3 3 37
c4 43 -22 108 -62 155 -54 64 -184 104 -277 84z m147 -80 c41 -19 98 -79 107
-112 5 -18 -4 -19 -194 -19 -109 0 -199 2 -199 5 0 14 40 82 57 97 53 48 157
62 229 29z"/>
<path d="M18212 2722 c-264 -95 -259 -451 6 -528 175 -51 353 68 369 246 10
109 -54 222 -151 269 -63 31 -158 36 -224 13z m166 -68 c177 -73 174 -335 -4
-394 -20 -7 -61 -10 -90 -8 -166 14 -251 220 -142 344 62 70 154 93 236 58z"/>
<path d="M18912 2722 c-29 -11 -69 -34 -88 -53 l-34 -33 0 48 0 47 -37 -3 -38
-3 -3 -352 -2 -353 24 0 c13 0 31 -3 40 -6 14 -5 16 10 16 127 l0 132 23 -20
c78 -72 217 -90 313 -41 57 30 119 93 142 147 9 21 16 65 16 106 0 56 -5 80
-27 121 -63 123 -215 182 -345 136z m200 -87 c52 -36 98 -120 98 -177 0 -151
-160 -251 -300 -187 -56 25 -77 44 -101 91 -56 109 -18 230 90 289 56 30 157
23 213 -16z"/>
<path d="M19601 2726 c-24 -8 -59 -29 -77 -47 l-34 -33 0 43 0 42 -37 -3 -38
-3 -3 -268 -2 -268 37 3 38 3 5 180 c6 199 12 224 71 266 48 34 126 38 163 8
50 -39 56 -70 56 -274 l0 -186 38 3 37 3 5 175 c5 160 7 178 29 216 43 77 140
106 209 64 18 -11 38 -32 44 -48 6 -15 13 -111 16 -220 l4 -193 32 3 31 3 3
188 c3 198 -4 246 -40 292 -26 33 -91 64 -134 65 -54 0 -117 -29 -165 -76
l-46 -45 -13 31 c-29 69 -138 105 -229 76z"/>
<path d="M20558 2727 c-117 -34 -199 -146 -199 -273 0 -73 22 -131 70 -186
111 -126 354 -108 447 32 l28 42 -25 19 -24 18 -45 -49 c-51 -57 -99 -80 -165
-80 -93 0 -175 59 -200 144 -8 27 -15 51 -15 53 0 1 109 4 243 5 l242 3 3 37
c4 44 -22 108 -63 156 -61 72 -194 108 -297 79z m168 -76 c41 -19 98 -79 107
-112 5 -18 -4 -19 -194 -19 -109 0 -199 2 -199 5 0 14 40 82 57 97 53 48 157
62 229 29z"/>
<path d="M21275 2731 c-41 -10 -85 -34 -117 -65 l-28 -25 0 45 0 45 -37 -3
-38 -3 -3 -268 -2 -268 37 3 38 3 5 175 c6 212 16 237 109 285 44 22 132 17
162 -11 47 -42 53 -69 57 -267 l4 -188 32 3 31 3 3 183 c3 212 -4 251 -57 303
-51 51 -119 68 -196 50z"/>
<path d="M23038 2727 c-117 -34 -199 -146 -199 -273 0 -73 22 -131 70 -186
111 -126 354 -108 447 32 l28 42 -25 19 -24 18 -45 -49 c-51 -57 -99 -80 -165
-80 -93 0 -175 59 -200 144 -8 27 -15 51 -15 53 0 1 109 4 243 5 l242 3 3 37
c4 44 -22 108 -63 156 -61 72 -194 108 -297 79z m168 -76 c41 -19 98 -79 107
-112 5 -18 -4 -19 -194 -19 -109 0 -199 2 -199 5 0 14 40 82 57 97 53 48 157
62 229 29z"/>
<path d="M16560 2708 c0 -7 30 -75 67 -152 36 -78 90 -192 120 -255 46 -97 56
-112 67 -100 13 13 246 500 246 513 0 9 -53 7 -67 -2 -11 -7 -63 -112 -153
-307 l-28 -59 -86 179 c-48 99 -92 183 -99 187 -19 12 -67 9 -67 -4z"/>
</g>
</svg>
