<svg id="e1JP0hKoyAd1" xmlns="http://www.w3.org/2000/svg" xmlns:xlink="http://www.w3.org/1999/xlink" viewBox="0 0 300 300" shape-rendering="geometricPrecision" text-rendering="geometricPrecision"><rect width="243.272496" height="277.589134" rx="0" ry="0" transform="matrix(.911022 0 0 1.166055 0-23.684204)" fill="#000104" stroke-width="0"/><rect width="61.154474" height="223.155353" rx="0" ry="0" transform="matrix(1 0 0 1.68871 238.845526-76.84466)" fill="#000104" stroke-width="0"/><line x1="-28.106859" y1="-33.627849" x2="28.10686" y2="33.62785" transform="translate(-348.158738-63.64853)" fill="none" stroke="#3f5787" stroke-width="3"/><line x1="-28.106859" y1="-24.593502" x2="28.106859" y2="24.593502" transform="translate(-348.158737 63.836154)" fill="none" stroke="#3f5787" stroke-width="3"/><line x1="28.106859" y1="-30.785172" x2="-28.106859" y2="30.785172" transform="translate(-348.158737 119.214828)" fill="none" stroke="#3f5787" stroke-width="3"/><line x1="-15" y1="0" x2="15" y2="0" transform="translate(-376.265596 150)" fill="none" stroke="#3f5787" stroke-width="3"/><polygon points="0,-44.587983 38.614326,22.293992 -38.614326,22.293992 0,-44.587983" transform="matrix(-.999678-.02537 0.02537-.999678 261.359707 23.266477)" fill="#000104" stroke-width="0"/><polygon points="0,-44.587983 38.614326,22.293992 -38.614326,22.293992 0,-44.587983" transform="matrix(-.457168 0.839715-.755797-.411481 208.875768 22.062917)" fill="#000104" stroke-width="0"/></svg>
